<?xml version="1.0" encoding="UTF-8" standalone="no"?>
<!-- Created with Inkscape (http://www.inkscape.org/) -->

<svg
   xmlns:dc="http://purl.org/dc/elements/1.1/"
   xmlns:cc="http://creativecommons.org/ns#"
   xmlns:rdf="http://www.w3.org/1999/02/22-rdf-syntax-ns#"
   xmlns:svg="http://www.w3.org/2000/svg"
   xmlns="http://www.w3.org/2000/svg"
   xmlns:sodipodi="http://sodipodi.sourceforge.net/DTD/sodipodi-0.dtd"
   xmlns:inkscape="http://www.inkscape.org/namespaces/inkscape"
   width="445.96875"
   height="338.60251"
   id="svg2"
   version="1.1"
   inkscape:version="0.48.4 r9939"
   sodipodi:docname="fill_cache_cos.pdf">
  <defs
     id="defs4">
    <marker
       inkscape:stockid="Arrow1Lend"
       orient="auto"
       refY="0"
       refX="0"
       id="Arrow1Lend"
       style="overflow:visible">
      <path
         id="path3997"
         d="M 0,0 5,-5 -12.5,0 5,5 0,0 z"
         style="fill-rule:evenodd;stroke:#000000;stroke-width:1pt"
         transform="matrix(-0.8,0,0,-0.8,-10,0)"
         inkscape:connector-curvature="0" />
    </marker>
    <marker
       inkscape:stockid="Arrow1Lend"
       orient="auto"
       refY="0"
       refX="0"
       id="Arrow1Lend-4"
       style="overflow:visible">
      <path
         inkscape:connector-curvature="0"
         id="path3997-8"
         d="M 0,0 5,-5 -12.5,0 5,5 0,0 z"
         style="fill-rule:evenodd;stroke:#000000;stroke-width:1pt"
         transform="matrix(-0.8,0,0,-0.8,-10,0)" />
    </marker>
    <marker
       inkscape:stockid="Arrow1Lend"
       orient="auto"
       refY="0"
       refX="0"
       id="Arrow1Lend-2"
       style="overflow:visible">
      <path
         inkscape:connector-curvature="0"
         id="path3997-4"
         d="M 0,0 5,-5 -12.5,0 5,5 0,0 z"
         style="fill-rule:evenodd;stroke:#000000;stroke-width:1pt"
         transform="matrix(-0.8,0,0,-0.8,-10,0)" />
    </marker>
    <marker
       inkscape:stockid="Arrow1Lend"
       orient="auto"
       refY="0"
       refX="0"
       id="Arrow1Lend-5"
       style="overflow:visible">
      <path
         inkscape:connector-curvature="0"
         id="path3997-1"
         d="M 0,0 5,-5 -12.5,0 5,5 0,0 z"
         style="fill-rule:evenodd;stroke:#000000;stroke-width:1pt"
         transform="matrix(-0.8,0,0,-0.8,-10,0)" />
    </marker>
    <marker
       inkscape:stockid="Arrow1Lend"
       orient="auto"
       refY="0"
       refX="0"
       id="Arrow1Lend-1"
       style="overflow:visible">
      <path
         inkscape:connector-curvature="0"
         id="path3997-15"
         d="M 0,0 5,-5 -12.5,0 5,5 0,0 z"
         style="fill-rule:evenodd;stroke:#000000;stroke-width:1pt"
         transform="matrix(-0.8,0,0,-0.8,-10,0)" />
    </marker>
  </defs>
  <sodipodi:namedview
     id="base"
     pagecolor="#ffffff"
     bordercolor="#666666"
     borderopacity="1.0"
     inkscape:pageopacity="0.0"
     inkscape:pageshadow="2"
     inkscape:zoom="1.979899"
     inkscape:cx="130.97946"
     inkscape:cy="203.96498"
     inkscape:document-units="px"
     inkscape:current-layer="layer2"
     showgrid="false"
     inkscape:window-width="1920"
     inkscape:window-height="1018"
     inkscape:window-x="-8"
     inkscape:window-y="-8"
     inkscape:window-maximized="1"
     fit-margin-top="50"
     fit-margin-left="50"
     fit-margin-right="50"
     fit-margin-bottom="50" />
  <metadata
     id="metadata7">
    <rdf:RDF>
      <cc:Work
         rdf:about="">
        <dc:format>image/svg+xml</dc:format>
        <dc:type
           rdf:resource="http://purl.org/dc/dcmitype/StillImage" />
        <dc:title></dc:title>
      </cc:Work>
    </rdf:RDF>
  </metadata>
  <g
     inkscape:label="Ebene 1"
     inkscape:groupmode="layer"
     id="layer1"
     transform="translate(-234.4375,-327.21169)">
    <rect
       style="fill:#7d7d7d;fill-opacity:1;stroke:#000000;stroke-width:10;stroke-miterlimit:4;stroke-opacity:1;stroke-dasharray:none"
       id="rect2985"
       width="602.85712"
       height="614.28571"
       x="345.71429"
       y="498.07648" />
    <text
       xml:space="preserve"
       style="font-size:25px;font-style:normal;font-variant:normal;font-weight:normal;font-stretch:normal;line-height:125%;letter-spacing:0px;word-spacing:0px;fill:#fad600;fill-opacity:1;stroke:none;font-family:Arial;-inkscape-font-specification:Arial"
       x="358.57144"
       y="580.93359"
       id="text5604"
       sodipodi:linespacing="125%"><tspan
         sodipodi:role="line"
         id="tspan5606"
         x="358.57144"
         y="580.93359"
         style="font-size:20px;fill:#fad600;fill-opacity:1;stroke:none">p1</tspan></text>
    <text
       xml:space="preserve"
       style="font-size:25px;font-style:normal;font-variant:normal;font-weight:normal;font-stretch:normal;line-height:125%;letter-spacing:0px;word-spacing:0px;fill:#fad600;fill-opacity:1;stroke:none;font-family:Arial;-inkscape-font-specification:Arial"
       x="358.57144"
       y="549.86218"
       id="text5608"
       sodipodi:linespacing="125%"><tspan
         sodipodi:role="line"
         id="tspan5610"
         x="358.57144"
         y="549.86218"
         style="font-size:20px">p2</tspan></text>
    <text
       xml:space="preserve"
       style="font-size:20px;font-style:normal;font-variant:normal;font-weight:normal;font-stretch:normal;line-height:125%;letter-spacing:0px;word-spacing:0px;fill:#fad600;fill-opacity:1;stroke:none;font-family:Arial;-inkscape-font-specification:Arial"
       x="362.5"
       y="520.21936"
       id="text5612"
       sodipodi:linespacing="125%"><tspan
         sodipodi:role="line"
         id="tspan5614"
         x="362.5"
         y="520.21936">p3</tspan></text>
    <text
       xml:space="preserve"
       style="font-size:20px;font-style:normal;font-variant:normal;font-weight:normal;font-stretch:normal;line-height:125%;letter-spacing:0px;word-spacing:0px;fill:#fad600;fill-opacity:1;stroke:none;font-family:Arial;-inkscape-font-specification:Arial"
       x="477.2384"
       y="520.19006"
       id="text5612-7"
       sodipodi:linespacing="125%"><tspan
         sodipodi:role="line"
         id="tspan5614-6"
         x="477.2384"
         y="520.19006">p4</tspan></text>
    <text
       xml:space="preserve"
       style="font-size:20px;font-style:normal;font-variant:normal;font-weight:normal;font-stretch:normal;line-height:125%;letter-spacing:0px;word-spacing:0px;fill:#fad600;fill-opacity:1;stroke:none;font-family:Arial;-inkscape-font-specification:Arial"
       x="575.4527"
       y="520.09241"
       id="text5612-1"
       sodipodi:linespacing="125%"><tspan
         sodipodi:role="line"
         id="tspan5614-4"
         x="575.4527"
         y="520.09241">p5</tspan><tspan
         sodipodi:role="line"
         x="575.4527"
         y="545.09241"
         id="tspan5646" /></text>
    <text
       xml:space="preserve"
       style="font-size:20px;font-style:normal;font-variant:normal;font-weight:normal;font-stretch:normal;line-height:125%;letter-spacing:0px;word-spacing:0px;fill:#00f0e2;fill-opacity:1;stroke:none;font-family:Arial;-inkscape-font-specification:Arial"
       x="407.14285"
       y="528.005"
       id="text5648"
       sodipodi:linespacing="125%"><tspan
         sodipodi:role="line"
         id="tspan5650"
         x="407.14285"
         y="528.005">cache</tspan></text>
  </g>
  <g
     inkscape:groupmode="layer"
     id="layer2"
     inkscape:label="Ebene"
     transform="translate(-234.4375,-327.21169)">
    <path
       sodipodi:type="arc"
       style="fill:#00f0e2;fill-opacity:1;stroke:none"
       id="path3758"
       sodipodi:cx="456.08386"
       sodipodi:cy="495.76813"
       sodipodi:rx="10.606602"
       sodipodi:ry="10.101525"
       d="m 466.69046,495.76813 c 0,5.57892 -4.74873,10.10152 -10.6066,10.10152 -5.85786,0 -10.6066,-4.5226 -10.6066,-10.10152 0,-5.57892 4.74874,-10.10153 10.6066,-10.10153 5.85787,0 10.6066,4.52261 10.6066,10.10153 z"
       transform="matrix(1.4142136,0,0,1.4849243,-231.12305,-239.6041)" />
    <path
       sodipodi:type="arc"
       style="fill:#fad600;fill-opacity:1;stroke:none"
       id="path3760"
       sodipodi:cx="521.23871"
       sodipodi:cy="492.73767"
       sodipodi:rx="10.101525"
       sodipodi:ry="10.101525"
       d="m 531.34023,492.73767 c 0,5.57892 -4.5226,10.10153 -10.10152,10.10153 -5.57892,0 -10.10153,-4.52261 -10.10153,-10.10153 0,-5.57892 4.52261,-10.10152 10.10153,-10.10152 5.57892,0 10.10152,4.5226 10.10152,10.10152 z"
       transform="matrix(0.98994951,0,0,0.98994951,-24.863004,5.2907667)" />
    <path
       sodipodi:type="arc"
       style="fill:#fad600;fill-opacity:1;stroke:none"
       id="path3760-1"
       sodipodi:cx="521.23871"
       sodipodi:cy="492.73767"
       sodipodi:rx="10.101525"
       sodipodi:ry="10.101525"
       d="m 531.34023,492.73767 c 0,5.57892 -4.5226,10.10153 -10.10152,10.10153 -5.57892,0 -10.10153,-4.52261 -10.10153,-10.10153 0,-5.57892 4.52261,-10.10152 10.10153,-10.10152 5.57892,0 10.10152,4.5226 10.10152,10.10152 z"
       transform="matrix(0.98994951,0,0,0.98994951,-152.34509,5.2907667)" />
    <path
       sodipodi:type="arc"
       style="fill:#fad600;fill-opacity:1;stroke:none"
       id="path3760-7"
       sodipodi:cx="521.23871"
       sodipodi:cy="492.73767"
       sodipodi:rx="10.101525"
       sodipodi:ry="10.101525"
       d="m 531.34023,492.73767 c 0,5.57892 -4.5226,10.10153 -10.10152,10.10153 -5.57892,0 -10.10153,-4.52261 -10.10153,-10.10153 0,-5.57892 4.52261,-10.10152 10.10153,-10.10152 5.57892,0 10.10152,4.5226 10.10152,10.10152 z"
       transform="matrix(0.98994951,0,0,0.98994951,-175.286,50.409121)" />
    <path
       sodipodi:type="arc"
       style="fill:#fad600;fill-opacity:1;stroke:none"
       id="path3760-4"
       sodipodi:cx="521.23871"
       sodipodi:cy="492.73767"
       sodipodi:rx="10.101525"
       sodipodi:ry="10.101525"
       d="m 531.34023,492.73767 c 0,5.57892 -4.5226,10.10153 -10.10152,10.10153 -5.57892,0 -10.10153,-4.52261 -10.10153,-10.10153 0,-5.57892 4.52261,-10.10152 10.10153,-10.10152 5.57892,0 10.10152,4.5226 10.10152,10.10152 z"
       transform="matrix(0.98994951,0,0,0.98994951,-175.286,88.794918)" />
    <path
       sodipodi:type="arc"
       style="fill:#fad600;fill-opacity:1;stroke:none"
       id="path3760-0"
       sodipodi:cx="521.23871"
       sodipodi:cy="492.73767"
       sodipodi:rx="10.101525"
       sodipodi:ry="10.101525"
       d="m 531.34023,492.73767 c 0,5.57892 -4.5226,10.10153 -10.10152,10.10153 -5.57892,0 -10.10153,-4.52261 -10.10153,-10.10153 0,-5.57892 4.52261,-10.10152 10.10153,-10.10152 5.57892,0 10.10152,4.5226 10.10152,10.10152 z"
       transform="matrix(0.98994951,0,0,0.98994951,84.030608,5.2907667)" />
    <path
       style="fill:none;stroke:#000000;stroke-width:1px;stroke-linecap:butt;stroke-linejoin:miter;stroke-opacity:1;marker-end:url(#Arrow1Lend)"
       d="m 629.97358,439.40261 -29.27806,53.6006"
       id="path5350"
       inkscape:connector-curvature="0" />
    <path
       style="fill:none;stroke:#000000;stroke-width:1px;stroke-linecap:butt;stroke-linejoin:miter;stroke-opacity:1;marker-end:url(#Arrow1Lend)"
       d="m 463.22021,435.54292 26.41672,55.0671"
       id="path5350-8"
       inkscape:connector-curvature="0" />
    <path
       style="fill:none;stroke:#000000;stroke-width:1px;stroke-linecap:butt;stroke-linejoin:miter;stroke-opacity:1;marker-end:url(#Arrow1Lend)"
       d="m 310.59344,459.2945 51.67028,32.56394"
       id="path5350-5"
       inkscape:connector-curvature="0" />
    <path
       style="fill:none;stroke:#000000;stroke-width:1px;stroke-linecap:butt;stroke-linejoin:miter;stroke-opacity:1;marker-end:url(#Arrow1Lend)"
       d="M 284.63732,564.14698 340.3627,539.1488"
       id="path5350-7"
       inkscape:connector-curvature="0" />
    <path
       style="fill:none;stroke:#000000;stroke-width:1px;stroke-linecap:butt;stroke-linejoin:miter;stroke-opacity:1;marker-end:url(#Arrow1Lend)"
       d="m 295.35203,534.57768 45.01022,41.28328"
       id="path5350-2"
       inkscape:connector-curvature="0" />
    <path
       sodipodi:type="arc"
       style="fill:none;stroke:#000000;stroke-width:0.17361574;stroke-miterlimit:4;stroke-opacity:1;stroke-dasharray:0.17361574, 0.69446295;stroke-dashoffset:0"
       id="path3758-2"
       sodipodi:cx="456.08386"
       sodipodi:cy="495.76813"
       sodipodi:rx="10.606602"
       sodipodi:ry="10.101525"
       d="m 466.69046,495.76813 c 0,5.57892 -4.74873,10.10152 -10.6066,10.10152 -5.85786,0 -10.6066,-4.5226 -10.6066,-10.10152 0,-5.57892 4.74874,-10.10153 10.6066,-10.10153 5.85787,0 10.6066,4.52261 10.6066,10.10153 z"
       transform="matrix(11.242069,0,0,11.804173,-4713.4493,-5355.5587)" />
    <text
       xml:space="preserve"
       style="font-size:20px;font-style:normal;font-variant:normal;font-weight:normal;font-stretch:normal;line-height:125%;letter-spacing:0px;word-spacing:0px;fill:#000000;fill-opacity:1;stroke:none;font-family:Arial;-inkscape-font-specification:Arial"
       x="349.00769"
       y="413.94577"
       id="text5670"
       sodipodi:linespacing="125%"><tspan
         sodipodi:role="line"
         id="tspan5672"
         x="349.00769"
         y="413.94577">k=4</tspan></text>
  </g>
</svg>
